HIERARCHY
ROOT Hips
{
	OFFSET 0.000000 0.000000 0.000000
	CHANNELS 6 Xposition Yposition Zposition Zrotation Yrotation Xrotation 
	JOINT LHipJoint
	{
		OFFSET 0.000000 0.000000 0.000000
		CHANNELS 3 Zrotation Yrotation Xrotation
		JOINT LeftUpLeg
		{
			OFFSET 1.363060 -1.794630 0.839290
			CHANNELS 3 Zrotation Yrotation Xrotation
			JOINT LeftLeg
			{
				OFFSET 2.448110 -6.726130 0.000000
				CHANNELS 3 Zrotation Yrotation Xrotation
				JOINT LeftFoot
				{
					OFFSET 2.562200 -7.039590 0.000000
					CHANNELS 3 Zrotation Yrotation Xrotation
					JOINT LeftToeBase
					{
						OFFSET 0.157640 -0.433110 2.322550
						CHANNELS 3 Zrotation Yrotation Xrotation
						End Site
						{
							OFFSET 0.000000 0.000000 0.000000
						}
					}
				}
			}
		}
	}
	JOINT RHipJoint
	{
		OFFSET 0.000000 0.000000 0.000000
		CHANNELS 3 Zrotation Yrotation Xrotation
		JOINT RightUpLeg
		{
			OFFSET -1.305520 -1.794630 0.839290
			CHANNELS 3 Zrotation Yrotation Xrotation
			JOINT RightLeg
			{
				OFFSET -2.542530 -6.985550 0.000000
				CHANNELS 3 Zrotation Yrotation Xrotation
				JOINT RightFoot
				{
					OFFSET -2.568260 -7.056230 0.000000
					CHANNELS 3 Zrotation Yrotation Xrotation
					JOINT RightToeBase
					{
						OFFSET -0.164730 -0.452590 2.363150
						CHANNELS 3 Zrotation Yrotation Xrotation
						End Site
						{
							OFFSET 0.000000 0.000000 0.000000
						}
					}
				}
			}
		}
	}
}
MOTION
Frames: 25
Frame Time: 0.008333
7.484508 16.595906 4.079783 16.846861 -87.980000 -4.188434 -9.309866 2.188904 4.818232 -13.374150 2.158123 -42.457984 -2.837979 0.424452 19.784570 0.598053 3.004922 -0.027867 0.787600 0.000000 -32.355600 11.428444 -3.174131 -0.684801 -0.446505 -18.938525 -11.917532 -0.341021 -2.293310 43.478748 -0.562724 1.394693 15.235441 0.711899 0.000000 -103.481000
7.353458 16.539513 4.071897 22.669519 -87.856300 -9.788422 -9.114137 2.293268 4.830522 -13.707251 1.694809 -43.728418 -2.737605 0.703350 22.833103 0.692304 3.355252 -0.765713 0.779500 -0.000000 -29.812100 11.731150 -2.978272 -0.609674 -0.911028 -18.890706 -13.509494 -0.552000 -2.396266 46.460213 -0.693891 1.285733 16.449279 0.781600 0.000000 -102.130999
7.228300 16.490688 4.064967 28.199677 -87.811628 -15.114089 -8.929646 2.370111 4.817742 -14.014648 1.355210 -44.798149 -2.647149 0.934377 25.542767 0.794755 3.718116 -1.726155 0.744600 0.000000 -28.081001 12.006827 -2.769118 -0.531800 -1.301602 -18.744760 -15.155344 -0.751364 -2.500950 49.429942 -0.849326 0.931839 17.636370 0.748600 0.000000 -100.141000
7.109132 16.450112 4.060602 33.246573 -87.860464 -19.987052 -8.769169 2.415804 4.777394 -14.257186 1.165385 -45.659826 -2.569052 1.118601 27.901300 0.901645 4.068108 -2.875230 0.676900 0.000000 -27.207500 12.243052 -2.559238 -0.456076 -1.576541 -18.517880 -16.823850 -0.933388 -2.609927 52.335749 -1.023773 0.289810 18.689788 0.574700 -0.000000 -97.669700
6.994817 16.417915 4.058599 38.529068 -87.989948 -25.113483 -8.614271 2.441339 4.722141 -14.459371 1.084683 -46.319544 -2.507673 1.255331 29.895420 1.014690 4.424745 -4.144381 0.582400 0.000001 -27.054200 12.460786 -2.350721 -0.380697 -1.768397 -18.261324 -18.536997 -1.095554 -2.728357 55.161358 -1.209441 -0.621432 19.506643 0.254000 0.000001 -94.727200
6.885919 16.394154 4.061292 43.357039 -88.221705 -29.830655 -8.499781 2.432339 4.641023 -14.547810 1.167281 -46.784428 -2.455795 1.351961 31.558249 1.124325 4.738335 -5.469943 0.459100 0.000000 -27.593300 12.627677 -2.163994 -0.315463 -1.797412 -17.973147 -20.226107 -1.238120 -2.856025 57.832695 -1.402770 -1.840907 20.004512 -0.236200 0.000000 -91.716900
6.781015 16.378458 4.067998 48.429633 -88.531456 -34.820653 -8.409326 2.397443 4.548046 -14.548222 1.361674 -47.075258 -2.412127 1.409874 32.901932 1.230321 5.029004 -6.765635 0.320800 -0.000000 -28.558100 12.762806 -2.001934 -0.257925 -1.697170 -17.697031 -21.908337 -1.362087 -2.996363 60.331995 -1.596789 -3.301536 20.118231 -0.856500 -0.000001 -88.652200
6.679618 16.370355 4.079025 53.835769 -88.908729 -40.174414 -8.349915 2.333609 4.445197 -14.445818 1.658613 -47.210639 -2.370818 1.433854 33.960583 1.326924 5.284769 -7.959369 0.177800 -0.000000 -29.750100 12.861490 -1.874727 -0.211497 -1.455769 -17.450986 -23.556161 -1.468262 -3.149408 62.616115 -1.786420 -4.940322 19.814799 -1.557300 0.000001 -85.722200
6.581016 16.369258 4.094226 59.815254 -89.338343 -46.124862 -8.325914 2.238244 4.338843 -14.235249 2.037784 -47.226056 -2.326128 1.428715 34.780074 1.409288 5.497729 -8.995692 0.041600 0.000000 -30.925900 12.920743 -1.792541 -0.174735 -1.065981 -17.247786 -25.160528 -1.556090 -3.314716 64.653680 -1.965898 -6.662802 19.090695 -2.266800 0.000000 -82.988500
6.484731 16.374690 4.112189 67.134883 -89.775211 -53.440860 -8.329373 2.109287 4.230533 -13.944874 2.453720 -47.111409 -2.274430 1.394051 35.375828 1.475173 5.677629 -9.825116 -0.076499 0.000000 -31.926700 12.949712 -1.761794 -0.153362 -0.575341 -17.124906 -26.692500 -1.621715 -3.496284 66.411794 -2.128032 -8.342669 17.978993 -2.899800 0.000000 -80.572300
6.390077 16.386102 4.131514 -103.174671 -89.830371 116.855890 -8.364318 1.937112 4.125036 -13.607022 2.859417 -46.876300 -2.211629 1.328668 35.774253 1.523240 5.830051 -10.424577 -0.169000 0.000001 -32.625700 12.944346 -1.797115 -0.147776 -0.025058 -17.111059 -28.145815 -1.658977 -3.700782 67.871536 -2.264141 -9.854136 16.532526 -3.381400 0.000000 -78.385400
6.296528 16.402959 4.152240 -89.859259 -89.498491 103.527351 -8.477803 1.693724 4.028320 -13.217591 3.244897 -46.572708 -2.131438 1.235154 36.034423 1.549242 5.931726 -10.807968 -0.234400 0.000001 -32.962300 12.856219 -1.929491 -0.151122 0.602115 -17.195713 -29.529516 -1.660299 -3.930546 69.011892 -2.369588 -11.127393 14.847369 -3.682000 0.000001 -76.547900
6.203978 16.425019 4.171647 -70.345165 -89.366953 83.998581 -8.748581 1.362716 3.949517 -12.882778 3.543759 -46.158105 -2.037743 1.117353 36.120246 1.558540 6.019349 -10.978933 -0.271600 0.000000 -32.997100 12.601699 -2.166490 -0.177341 1.164528 -17.426410 -30.832677 -1.621771 -4.185327 69.841654 -2.434256 -12.056171 13.011153 -3.774100 0.000000 -74.899200
6.112368 16.452035 4.188508 -44.814608 -89.645721 58.452073 -9.312690 1.047717 3.927577 -12.671936 3.810733 -45.676037 -1.963527 1.041781 35.989370 1.563635 6.134657 -10.989606 -0.284500 0.000000 -32.804601 12.030638 -2.383383 -0.234824 1.565192 -17.706872 -32.042000 -1.576030 -4.364965 70.409835 -2.455976 -12.609463 11.135495 -3.683000 -0.000000 -73.531400
6.021532 16.483729 4.202124 159.711524 -89.541385 -146.117752 -9.926802 1.076866 3.997346 -12.482128 4.200814 -45.238527 -1.969907 1.102385 35.634333 1.583650 6.305365 -10.920858 -0.278401 0.000000 -32.483500 11.383024 -2.258403 -0.305564 1.889817 -17.834513 -33.088949 -1.585967 -4.296470 70.762302 -2.439792 -12.797578 9.312810 -3.453100 0.000000 -72.399300
5.931610 16.519887 4.211689 178.002848 -88.642592 -164.489479 -10.147418 1.388196 4.082060 -12.173538 4.672495 -44.802041 -2.024496 1.198700 35.167482 1.604666 6.448428 -10.796012 -0.259200 0.000000 -32.146299 11.128816 -1.896461 -0.344003 2.315978 -17.879460 -33.961837 -1.606447 -4.111754 70.811323 -2.390580 -12.666380 7.632868 -3.139400 -0.000000 -71.525400
5.842772 16.560327 4.216568 -170.170536 -88.074180 -176.399139 -10.107538 1.655755 4.132797 -11.835855 5.053779 -44.259940 -2.063447 1.218574 34.624230 1.609283 6.523675 -10.603825 -0.231801 -0.000000 -31.896800 11.141186 -1.621032 -0.354706 2.772177 -18.040672 -34.726294 -1.567466 -4.002743 70.507862 -2.308715 -12.264499 6.161162 -2.792301 -0.000000 -70.913300
5.755104 16.604721 4.217109 -161.981953 -87.755325 175.335844 -10.015905 1.838096 4.164994 -11.537718 5.353888 -43.619974 -2.089524 1.181452 33.973535 1.600300 6.548349 -10.367088 -0.199500 0.000000 -31.820200 11.204164 -1.453498 -0.350645 3.183153 -18.293162 -35.403125 -1.476433 -3.950530 69.889059 -2.200978 -11.661412 4.927760 -2.452501 -0.000000 -70.526100
5.668654 16.652699 4.213442 -156.412121 -87.595667 169.694715 -9.940269 1.963534 4.189703 -11.305770 5.604264 -42.894970 -2.113710 1.110516 33.190588 1.582442 6.542229 -10.096427 -0.163600 -0.000001 -31.975200 11.247088 -1.354677 -0.334298 3.514340 -18.587470 -35.995040 -1.349133 -3.920194 68.988304 -2.076477 -10.926881 3.931817 -2.143800 0.000000 -70.335200
5.583276 16.703733 4.206351 -152.288022 -87.514332 165.508260 -9.884680 2.062664 4.212100 -11.123788 5.844612 -42.115365 -2.142265 1.021033 32.281404 1.557471 6.508971 -9.793045 -0.123600 -0.000000 -32.375700 11.265510 -1.290908 -0.299882 3.787586 -18.868131 -36.505513 -1.197684 -3.887387 67.827393 -1.945169 -10.133609 3.148712 -1.878000 0.000000 -70.290200
5.499233 16.757356 4.196262 -149.454117 -87.478588 162.613028 -9.854485 2.145271 4.229610 -10.984976 6.099416 -41.279647 -2.176409 0.918855 31.242126 1.525321 6.452896 -9.439865 -0.077300 0.000000 -33.033500 11.255657 -1.249197 -0.248283 4.004598 -19.111852 -36.921688 -1.027810 -3.842882 66.416939 -1.814419 -9.336125 2.537536 -1.655900 0.000000 -70.371800
5.416341 16.812956 4.183937 -147.576976 -87.461059 160.679829 -9.847390 2.218063 4.242381 -10.875533 6.386046 -40.409511 -2.214952 0.808834 30.091491 1.485369 6.373904 -9.017624 -0.022300 -0.000000 -33.900800 11.221239 -1.223272 -0.175797 4.183893 -19.293440 -37.244850 -0.843101 -3.781397 64.766924 -1.689749 -8.575649 2.048577 -1.473300 -0.000001 -70.529600
5.334510 16.869981 4.169770 -146.607810 -87.450363 159.657770 -9.864726 2.283434 4.248324 -10.788138 6.714215 -39.508948 -2.255875 0.694000 28.840505 1.436870 6.274465 -8.501363 0.044300 -0.000000 -34.940800 11.162968 -1.211020 -0.083572 4.328458 -19.404684 -37.462626 -0.644956 -3.700607 62.880495 -1.573561 -7.871825 1.635171 -1.323299 0.000000 -70.745000
5.253433 16.927674 4.154574 -145.775107 -87.425718 158.784618 -9.892827 2.345513 4.248983 -10.701760 7.092111 -38.620881 -2.296745 0.578744 27.538408 1.378588 6.145002 -7.884729 0.122200 0.000000 -36.016000 11.095010 -1.212511 0.034124 4.469921 -19.428572 -37.582202 -0.434033 -3.599387 60.761551 -1.467089 -7.234895 1.261350 -1.200400 0.000000 -70.975500
5.172970 16.985473 4.138448 -145.063737 -87.391266 158.044917 -9.930914 2.405519 4.244796 -10.616725 7.513246 -37.757722 -2.336114 0.466345 26.212176 1.310732 5.986303 -7.160183 0.210900 -0.000000 -37.042600 11.018923 -1.227442 0.175417 4.603793 -19.371942 -37.596841 -0.210260 -3.477407 58.411955 -1.368068 -6.650467 0.907987 -1.097600 -0.000000 -71.207300
